<?xml version="1.0" encoding="utf-8"?><svg viewBox="0 0 502.66 502.66" xmlns="http://www.w3.org/2000/svg" xmlns:xlink="http://www.w3.org/1999/xlink"><style>:root>svg{display:none}:root>svg:target{display:block}</style><svg viewBox="0 0 20 19" id="cart" xmlns="http://www.w3.org/2000/svg"><path d="M20 6.579h-3.396L13.036.319a.608.608 0 00-.858-.225.678.678 0 00-.214.902l3.182 5.583H4.854L8.036.996a.678.678 0 00-.214-.902.608.608 0 00-.858.225L3.396 6.58H0v1.316h1.357l1.587 8.915c.166.934.941 1.611 1.844 1.611h10.424c.902 0 1.678-.677 1.843-1.61l1.588-8.916H20V6.579zm-4.174 9.99a.634.634 0 01-.614.536H4.788a.634.634 0 01-.615-.537L2.628 7.895h14.744l-1.546 8.674z"/></svg><svg viewBox="0 0 502.664 502.664" id="icon" xmlns="http://www.w3.org/2000/svg"><path d="M153.821 358.226L0 274.337v-46.463l153.821-83.414v54.574L46.636 250.523l107.185 53.431v54.272zm26.273 29.358L282.103 115.08h32.227L212.084 387.584h-31.99zm168.749-29.358v-54.272l107.164-52.999-107.164-52.59v-53.927l153.821 83.522v46.183l-153.821 84.083z"/></svg><svg viewBox="0 0 20 20" id="mini-cart-btn" xmlns="http://www.w3.org/2000/svg"><g clip-path="url(#ca)" fill-opacity=".3"><path d="M18.572 2.857h-5v-.714A2.144 2.144 0 0011.428 0H8.572C7.388 0 6.429.96 6.429 2.143v.714h-5a.714.714 0 100 1.429h.776L3.572 19.35c.033.369.343.65.714.649h11.428c.37.002.681-.28.715-.65l1.366-15.064h.776a.714.714 0 100-1.429zM7.857 2.143c0-.395.32-.714.715-.714h2.857c.394 0 .714.32.714.714v.714H7.857v-.714zm7.205 16.428H4.938L3.643 4.286H16.36L15.062 18.57z"/><path d="M7.857 16.381v-.003l-.714-10a.716.716 0 00-1.429.101l.715 10a.714.714 0 00.714.664h.051a.714.714 0 00.663-.762zM10 5.714a.714.714 0 00-.714.715v10a.714.714 0 101.428 0v-10A.714.714 0 0010 5.714zm3.622 0a.716.716 0 00-.765.664l-.714 10a.714.714 0 00.66.764h.053a.713.713 0 00.715-.663l.715-10a.716.716 0 00-.664-.765z"/></g><defs><clipPath id="ca"><path d="M0 0h20v20H0z"/></clipPath></defs></svg><svg viewBox="0 0 24 24" id="show" xmlns="http://www.w3.org/2000/svg"><path d="M12 9a3.02 3.02 0 00-3 3c0 1.642 1.358 3 3 3 1.641 0 3-1.358 3-3 0-1.641-1.359-3-3-3z"/><path d="M12 5c-7.633 0-9.927 6.617-9.948 6.684L1.946 12l.105.316C2.073 12.383 4.367 19 12 19s9.927-6.617 9.948-6.684l.106-.316-.105-.316C21.927 11.617 19.633 5 12 5zm0 12c-5.351 0-7.424-3.846-7.926-5C4.578 10.842 6.652 7 12 7c5.351 0 7.424 3.846 7.926 5-.504 1.158-2.578 5-7.926 5z"/></svg></svg>